# xmcd
#
# Track frame offsets: 
#        150
#        18805
#        41460
#        60693
#        81218
#        99620
#        114798
#        132838
#        147313
#        167740
#        180108
#        194638
#
# Disc length: 2929 seconds
#
# Revision: 2
# Processed by: cddbd v1.5.2PL0 Copyright (c) Steve Scherf et al.
# Submitted via: ExactAudioCopy v0.95b4
#
DISCID=950b6f0c
DTITLE=Sleepy Ray - Under The Mighty Blood
DYEAR=1994
DGENRE=Christian Blues
TTITLE0=Station To Station
TTITLE1=Love That's Really Real
TTITLE2=Cloud Rollin' In
TTITLE3=Magi's Lead
TTITLE4=Greatest Of These
TTITLE5=Ain't Talkin' 'Bout It
TTITLE6=Way Into The House
TTITLE7=High Time
TTITLE8=That You Are My Lord
TTITLE9=Lord Rescue Me
TTITLE10=Let It Flow
TTITLE11=Dancin' On A Heavenly Hill - II Samuel 6
EXTD=
EXTT0=
EXTT1=
EXTT2=
EXTT3=
EXTT4=
EXTT5=
EXTT6=
EXTT7=
EXTT8=
EXTT9=
EXTT10=
EXTT11=
PLAYORDER=
